<svg width="22" height="20" viewBox="0 0 22 20" fill="none" xmlns="http://www.w3.org/2000/svg">
<g clip-path="url(#clip0_66_99)">
<path d="M21.0546 19.9999V19.999H21.0599V12.664C21.0599 9.07569 20.2465 6.31152 15.8292 6.31152C13.7056 6.31152 12.2806 7.41819 11.6988 8.46736H11.6374V6.64652H7.4491V19.999H11.8102V13.3874C11.8102 11.6465 12.1577 9.96319 14.4278 9.96319C16.6645 9.96319 16.6979 11.9499 16.6979 13.499V19.9999H21.0546Z" fill="#0F2D59"/>
<path d="M0.347656 6.64795H4.71406V20.0004H0.347656V6.64795Z" fill="#0F2D59"/>
<path d="M2.52893 0C1.13284 0 0 1.07583 0 2.40167C0 3.7275 1.13284 4.82583 2.52893 4.82583C3.92503 4.82583 5.05787 3.7275 5.05787 2.40167C5.05699 1.07583 3.92415 0 2.52893 0V0Z" fill="#0F2D59"/>
</g>
<defs>
<clipPath id="clip0_66_99">
<rect width="21.0598" height="20" fill="white"/>
</clipPath>
</defs>
</svg>
