<svg width="22" height="20" viewBox="0 0 22 20" fill="none" xmlns="http://www.w3.org/2000/svg">
<g clip-path="url(#clip0_66_103)">
<path d="M18.8959 5.9275C19.7524 5.35 20.4728 4.62917 21.0598 3.79917V3.79833C20.2762 4.12417 19.4426 4.34083 18.5721 4.44583C19.4672 3.93833 20.1507 3.14083 20.4719 2.18C19.6374 2.6525 18.716 2.98583 17.7341 3.1725C16.9418 2.37083 15.8124 1.875 14.5804 1.875C12.1901 1.875 10.2658 3.7175 10.2658 5.97583C10.2658 6.30083 10.2947 6.61333 10.3658 6.91083C6.77688 6.74417 3.60035 5.11083 1.46629 2.62167C1.09423 3.23583 0.87486 3.93833 0.87486 4.69417C0.87486 6.11417 1.64442 7.3725 2.79306 8.10167C2.09896 8.08917 1.41891 7.8975 0.842393 7.59667V7.64167C0.842393 9.63417 2.33852 11.2892 4.30147 11.6708C3.9496 11.7625 3.56701 11.8058 3.1695 11.8058C2.89309 11.8058 2.61405 11.7908 2.35256 11.7358C2.91152 13.3592 4.49978 14.5533 6.38639 14.5925C4.91747 15.6833 3.05192 16.3408 1.03281 16.3408C0.67918 16.3408 0.33959 16.3258 0 16.285C1.91293 17.4558 4.17862 18.125 6.62332 18.125C14.2426 18.125 19.2083 12.0883 18.8959 5.9275Z" fill="#0F2D59"/>
</g>
<defs>
<clipPath id="clip0_66_103">
<rect width="21.0598" height="20" fill="white"/>
</clipPath>
</defs>
</svg>
