<svg width="22" height="20" viewBox="0 0 22 20" fill="none" xmlns="http://www.w3.org/2000/svg">
<g clip-path="url(#clip0_66_105)">
<path d="M8.87741 14.0989C8.93357 14.0539 8.99061 14.0072 9.04326 13.958C6.11155 16.6897 1.33097 15.4147 0.210412 11.5622V11.5564C-1.29273 6.31471 5.0454 2.33305 9.0415 5.99971C9.12486 6.08388 14.6452 11.6747 14.2942 11.3189H14.31C15.1339 12.1255 16.3256 12.0372 17.0346 11.3322C17.7971 10.5755 17.8243 9.34055 17.0758 8.57138C15.8938 7.27888 13.5729 8.24471 13.7949 10.1605L12.4664 8.87555L10.9255 7.47638C11.2431 6.87721 11.6599 6.35305 12.182 5.89971C12.1259 5.94555 12.0689 5.99305 12.0162 6.04055C14.9593 3.29888 19.7364 4.60388 20.849 8.43971V8.44471C22.3557 13.6855 16.0106 17.6672 12.018 14.0005C11.9364 13.9172 6.41955 8.29138 6.7688 8.64805L6.76528 8.63555C6.75125 8.63555 6.75124 8.62305 6.75124 8.62305C5.88604 7.77555 4.71283 7.90305 4.02663 8.59721C3.26321 9.35388 3.23689 10.5889 3.98714 11.3464C5.11735 12.6089 7.48834 11.673 7.26546 9.71888C7.35145 9.80305 10.327 12.7039 10.1375 12.5197C9.65575 13.4322 9.11697 13.8514 8.87741 14.0989Z" fill="#0F2D59"/>
</g>
<defs>
<clipPath id="clip0_66_105">
<rect width="21.0598" height="20" fill="white"/>
</clipPath>
</defs>
</svg>
