<svg width="140" height="94" viewBox="0 0 140 94" fill="none" xmlns="http://www.w3.org/2000/svg">
<path opacity="0.1" d="M31.1005 0C22.1124 0 14.1118 2.92345 8.52153 8.51375C2.92344 14.1118 0 22.0969 0 31.0849C0 39.5054 1.47727 46.3241 5.52033 51.6967C8.72368 55.9419 13.9175 58.4766 19.2823 61.1279C19.2978 69.6572 19.1268 72.8528 12.4402 84.5466C9.43899 89.8103 15.4569 95.5873 20.5885 92.3761C36.3253 82.5484 46.7051 74.9599 53.3606 65.5287C60.0239 56.0974 62.2009 45.2356 62.2009 31.0849C62.2009 22.0969 59.293 14.1118 53.6949 8.51375C48.0969 2.91567 40.0885 0 31.1005 0ZM108.852 0C99.8636 0 91.863 2.92345 86.2727 8.51375C80.6746 14.1118 77.7511 22.0969 77.7511 31.0849C77.7511 39.5054 79.2284 46.3241 83.2715 51.6967C86.4748 55.9419 91.6686 58.4766 97.0334 61.1279C97.049 69.6572 96.8779 72.8528 90.1913 84.5466C87.1901 89.8103 93.2081 95.5873 98.3396 92.3761C114.076 82.5484 124.456 74.9599 131.112 65.5287C137.775 56.0974 139.952 45.2356 139.952 31.0849C139.952 22.0969 137.044 14.1118 131.446 8.51375C125.848 2.91567 117.84 0 108.852 0Z" fill="#CFE9FC"/>
</svg>
