<svg width="97" height="94" viewBox="0 0 97 94" fill="none" xmlns="http://www.w3.org/2000/svg">
<path d="M93.243 46.5834C93.243 57.9877 88.5198 68.9249 80.1126 76.989C71.7054 85.053 60.3028 89.5834 48.4132 89.5834C36.5236 89.5834 25.1209 85.053 16.7137 76.989C8.3065 68.9249 3.58337 57.9877 3.58337 46.5834M93.243 46.5834C93.243 35.1791 88.5198 24.2418 80.1126 16.1778C71.7054 8.11372 60.3028 3.58337 48.4132 3.58337C36.5236 3.58337 25.1209 8.11372 16.7137 16.1778C8.3065 24.2418 3.58337 35.1791 3.58337 46.5834M93.243 46.5834H3.58337" stroke="#CFE9FC" stroke-width="7.16667" stroke-linecap="round" stroke-linejoin="round"/>
<path d="M65.6552 46.5834C64.8083 62.3081 58.7699 77.3671 48.413 89.5834C38.0561 77.3671 32.0177 62.3081 31.1708 46.5834C32.0177 30.8587 38.0561 15.7997 48.413 3.58337C58.7699 15.7997 64.8083 30.8587 65.6552 46.5834Z" stroke="#CFE9FC" stroke-width="7.16667" stroke-linecap="round" stroke-linejoin="round"/>
</svg>
