<svg width="86" height="86" viewBox="0 0 86 86" fill="none" xmlns="http://www.w3.org/2000/svg">
<path d="M47.0307 4.03125V10.75H52.3251C53.9591 10.75 55.5662 11.18 56.9852 11.9916L63.919 15.9476C64.1268 16.0659 64.349 16.125 64.5855 16.125H76.5932C77.6624 16.125 78.6878 16.5497 79.4438 17.3057C80.1998 18.0617 80.6245 19.0871 80.6245 20.1562C80.6245 21.2254 80.1998 22.2508 79.4438 23.0068C78.6878 23.7628 77.6624 24.1875 76.5932 24.1875H74.2981L85.6447 49.407C85.98 50.1531 86.0804 50.9836 85.9326 51.7881C85.7848 52.5926 85.3957 53.3331 84.817 53.9112L81.9682 51.0625L84.8116 53.9166L84.8062 53.9274L84.7955 53.9381L84.7633 53.9704L84.731 53.9972L84.6772 54.051L84.4354 54.266C83.2995 55.2156 82.0704 56.0218 80.7481 56.6847C78.238 57.9425 74.6045 59.125 69.8745 59.125C66.1094 59.169 62.3861 58.3334 59.0009 56.6847C57.6812 56.0258 56.4436 55.214 55.3136 54.266L55.0718 54.051L54.9857 53.9704L54.9535 53.9381L54.932 53.9166V53.9112C54.3533 53.3331 53.9642 52.5926 53.8164 51.7881C53.6685 50.9836 53.7689 50.1531 54.1042 49.407L65.4563 24.1875H64.5855C62.9461 24.1875 61.339 23.7629 59.92 22.9459L52.9862 18.9899C52.7833 18.8738 52.5536 18.8126 52.3197 18.8125H47.0307V69.875H60.4682C61.5374 69.875 62.5628 70.2997 63.3188 71.0557C64.0748 71.8117 64.4995 72.8371 64.4995 73.9062C64.4995 74.9754 64.0748 76.0008 63.3188 76.7568C62.5628 77.5128 61.5374 77.9375 60.4682 77.9375H25.5307C24.4616 77.9375 23.4362 77.5128 22.6802 76.7568C21.9242 76.0008 21.4995 74.9754 21.4995 73.9062C21.4995 72.8371 21.9242 71.8117 22.6802 71.0557C23.4362 70.2997 24.4616 69.875 25.5307 69.875H38.9682V18.8125H33.6792C33.4454 18.8126 33.2157 18.8738 33.0127 18.9899L26.0844 22.9513C24.66 23.7575 23.0529 24.1875 21.4135 24.1875H20.5427L31.8947 49.407C32.23 50.1531 32.3304 50.9836 32.1826 51.7881C32.0348 52.5926 31.6457 53.3331 31.067 53.9112L28.2182 51.0625L31.0616 53.9166L31.0562 53.9274L31.0455 53.9381L31.0132 53.9704L30.9272 54.051L30.6854 54.266C29.5495 55.2156 28.3204 56.0218 26.9981 56.6847C24.488 57.9425 20.8545 59.125 16.1245 59.125C12.3594 59.169 8.63607 58.3334 5.25087 56.6847C3.93122 56.0258 2.69363 55.214 1.56362 54.266L1.32175 54.051L1.23575 53.9704L1.2035 53.9381L1.182 53.9166V53.9112C0.603335 53.3331 0.214243 52.5926 0.0663968 51.7881C-0.0814498 50.9836 0.018945 50.1531 0.354248 49.407L11.7062 24.1875H9.40575C8.33659 24.1875 7.31123 23.7628 6.55522 23.0068C5.79922 22.2508 5.3745 21.2254 5.3745 20.1562C5.3745 19.0871 5.79922 18.0617 6.55522 17.3057C7.31123 16.5497 8.33659 16.125 9.40575 16.125H21.4135C21.6491 16.1258 21.8808 16.0646 22.0854 15.9476L29.0084 11.9862C30.4327 11.18 32.0399 10.75 33.6792 10.75H38.9682V4.03125C38.9682 2.9621 39.393 1.93673 40.149 1.18073C40.905 0.42472 41.9303 0 42.9995 0C44.0687 0 45.094 0.42472 45.85 1.18073C46.606 1.93673 47.0307 2.9621 47.0307 4.03125ZM62.8601 49.5951C64.392 50.3208 66.7194 51.0625 69.8745 51.0625C73.0296 51.0625 75.357 50.3208 76.8889 49.5951L69.8745 34.0076L62.8601 49.5951ZM9.11012 49.5951C10.642 50.3208 12.9694 51.0625 16.1245 51.0625C19.2796 51.0625 21.607 50.3208 23.1389 49.5951L16.1245 34.0076L9.11012 49.5951Z" fill="#CFE9FC"/>
</svg>
