<svg width="86" height="86" viewBox="0 0 86 86" fill="none" xmlns="http://www.w3.org/2000/svg">
<path fill-rule="evenodd" clip-rule="evenodd" d="M29.369 11.309C22.6803 14.1973 17.0728 19.1214 13.3443 25.3808H24.0782C24.9203 21.6505 26.0311 18.2213 27.3677 15.2095C27.9584 13.8715 28.6267 12.5691 29.369 11.309ZM8.51042 43C8.51042 40.3304 8.815 37.7307 9.38833 35.2349H22.5499C22.3177 37.8167 22.2023 40.4077 22.2041 43C22.2041 45.6445 22.3206 48.2406 22.5499 50.7615H9.38654C8.8023 48.2157 8.50839 45.6119 8.51042 43ZM13.3425 60.6157C17.0709 66.8766 22.6791 71.8021 29.369 74.691C28.6267 73.4308 27.9584 72.1285 27.3677 70.7905C26.0293 67.7788 24.9203 64.3477 24.0782 60.6157H13.3425ZM33.2999 60.6157C33.878 62.8511 34.6322 65.0372 35.5556 67.1535C36.8797 70.1348 38.3399 72.2687 39.7374 73.5981C41.1098 74.906 42.2045 75.25 42.9982 75.25C43.7919 75.25 44.8884 74.906 46.2626 73.5981C47.6583 72.2687 49.1203 70.1348 50.4444 67.1535C51.299 65.2274 52.0605 63.0326 52.7001 60.6157H33.2999ZM61.9218 60.6157C61.0797 64.3477 59.9689 67.7788 58.6305 70.7905C58.0398 72.1285 57.3715 73.4308 56.6292 74.691C63.3198 71.8024 68.9286 66.8769 72.6575 60.6157H61.9218ZM76.6135 50.7615H63.4501C63.6822 48.1809 63.7976 45.5911 63.7959 43C63.7959 40.3537 63.6776 37.7576 63.4501 35.2349H76.6117C77.185 37.7307 77.4896 40.3304 77.4896 43C77.4896 45.6696 77.185 48.2675 76.6117 50.7615M54.4487 50.7615H31.5477C31.2888 48.1825 31.1602 45.592 31.1625 43C31.1625 40.3125 31.2968 37.7146 31.5495 35.2349H54.4487C54.6996 37.7146 54.8358 40.3143 54.8358 43C54.8358 45.6857 54.7014 48.2818 54.4487 50.7615ZM61.92 25.3808H72.6539C68.9249 19.1211 63.3168 14.197 56.6274 11.309C57.3548 12.5345 58.0213 13.8442 58.6287 15.2095C59.9671 18.2195 61.0761 21.6505 61.9182 25.3808M35.552 18.8465C34.6288 20.9617 33.8746 23.1466 33.2963 25.3808H52.6947C52.117 23.1466 51.3634 20.9617 50.4408 18.8465C49.115 15.8652 47.6548 13.7313 46.259 12.4019C44.8884 11.094 43.7937 10.75 43 10.75C42.2063 10.75 41.1098 11.094 39.7374 12.4019C38.3399 13.7313 36.8797 15.8652 35.5556 18.8465M43 1.34375C19.995 1.34375 1.34375 19.995 1.34375 43C1.34375 66.005 19.995 84.6562 43 84.6562C66.005 84.6562 84.6562 66.005 84.6562 43C84.6562 19.995 66.005 1.34375 43 1.34375Z" fill="#CFE9FC"/>
</svg>
