<svg width="86" height="86" viewBox="0 0 86 86" fill="none" xmlns="http://www.w3.org/2000/svg">
<path fill-rule="evenodd" clip-rule="evenodd" d="M43 22.3958C39.9113 22.3958 36.9491 23.6227 34.7651 25.8067C32.5811 27.9908 31.3541 30.9529 31.3541 34.0416C31.3541 37.1303 32.5811 40.0924 34.7651 42.2764C36.9491 44.4604 39.9113 45.6874 43 45.6874C46.0886 45.6874 49.0508 44.4604 51.2348 42.2764C53.4188 40.0924 54.6458 37.1303 54.6458 34.0416C54.6458 30.9529 53.4188 27.9908 51.2348 25.8067C49.0508 23.6227 46.0886 22.3958 43 22.3958ZM36.7291 34.0416C36.7291 32.3785 37.3898 30.7834 38.5658 29.6074C39.7418 28.4314 41.3368 27.7708 43 27.7708C44.6631 27.7708 46.2581 28.4314 47.4341 29.6074C48.6101 30.7834 49.2708 32.3785 49.2708 34.0416C49.2708 35.7047 48.6101 37.2997 47.4341 38.4757C46.2581 39.6517 44.6631 40.3124 43 40.3124C41.3368 40.3124 39.7418 39.6517 38.5658 38.4757C37.3898 37.2997 36.7291 35.7047 36.7291 34.0416Z" fill="#CFE9FC"/>
<path fill-rule="evenodd" clip-rule="evenodd" d="M43 8.0625C38.3143 8.06218 33.7156 9.32918 29.6912 11.7293C25.6669 14.1294 22.3665 17.5733 20.1398 21.6962C17.9131 25.8191 16.8429 30.4674 17.0427 35.1489C17.2424 39.8304 18.7045 44.3707 21.2743 48.289L12.0042 64.3423C11.7468 64.7894 11.6236 65.3011 11.6492 65.8163C11.6748 66.3316 11.8481 66.8285 12.1485 67.2479C12.4488 67.6673 12.8636 67.9914 13.3431 68.1814C13.8227 68.3715 14.3468 68.4196 14.8529 68.3198L24.2198 66.478L27.305 75.508C27.4713 75.9972 27.7751 76.4281 28.18 76.7491C28.5849 77.0701 29.0737 77.2676 29.588 77.3179C30.1022 77.3682 30.6201 77.2692 31.0795 77.0327C31.5389 76.7962 31.9204 76.4323 32.1783 75.9846L41.4233 59.9743C42.4734 60.0404 43.5266 60.0404 44.5767 59.9743L53.8217 75.9846C54.0799 76.4322 54.4617 76.796 54.9213 77.0322C55.3809 77.2684 55.8989 77.3671 56.4132 77.3164C56.9275 77.2657 57.4163 77.0678 57.821 76.7465C58.2257 76.4251 58.5291 75.9939 58.695 75.5044L61.7695 66.4529L71.1435 68.3163C71.6499 68.4168 72.1745 68.3694 72.6547 68.1797C73.1349 67.99 73.5502 67.666 73.8511 67.2464C74.1519 66.8269 74.3256 66.3295 74.3513 65.8139C74.3769 65.2982 74.2535 64.7861 73.9958 64.3388L64.7293 48.289C67.2992 44.3705 68.7614 39.8298 68.961 35.148C69.1605 30.4662 68.09 25.8176 65.8629 21.6946C63.6358 17.5716 60.3349 14.1278 56.31 11.7279C52.2851 9.32806 47.6861 8.06153 43 8.0625ZM22.3958 34.0417C22.3958 28.5771 24.5666 23.3364 28.4307 19.4723C32.2947 15.6083 37.5354 13.4375 43 13.4375C48.4646 13.4375 53.7053 15.6083 57.5694 19.4723C61.4334 23.3364 63.6042 28.5771 63.6042 34.0417C63.6042 39.5062 61.4334 44.747 57.5694 48.611C53.7053 52.475 48.4646 54.6458 43 54.6458C37.5354 54.6458 32.2947 52.475 28.4307 48.611C24.5666 44.747 22.3958 39.5062 22.3958 34.0417ZM35.776 59.0032C31.6999 57.8232 27.9755 55.6614 24.9293 52.7073L19.6188 61.9057L25.4847 60.7518C26.1221 60.6267 26.7833 60.7367 27.3459 61.0615C27.9085 61.3863 28.3344 61.9038 28.5448 62.5184L30.4798 68.1765L35.776 59.0032ZM55.513 68.1622L50.224 59.0032C54.3001 57.8232 58.0245 55.6614 61.0708 52.7073L66.3741 61.8913L60.5046 60.7232C59.8652 60.5966 59.2015 60.7067 58.6372 61.033C58.0729 61.3593 57.6465 61.8796 57.4373 62.4969L55.513 68.1622Z" fill="#CFE9FC"/>
</svg>
