<svg width="86" height="86" viewBox="0 0 86 86" fill="none" xmlns="http://www.w3.org/2000/svg">
<path d="M34.9375 21.5V69.875H51.0625V21.5C51.0625 20.0745 50.4962 18.7073 49.4882 17.6993C48.4802 16.6913 47.113 16.125 45.6875 16.125H40.3125C38.887 16.125 37.5198 16.6913 36.5118 17.6993C35.5038 18.7073 34.9375 20.0745 34.9375 21.5ZM29.5625 37.625V21.5C29.5625 18.6489 30.6951 15.9146 32.7111 13.8986C34.7271 11.8826 37.4614 10.75 40.3125 10.75H45.6875C48.5386 10.75 51.2729 11.8826 53.2889 13.8986C55.3049 15.9146 56.4375 18.6489 56.4375 21.5V26.875H64.5C67.3511 26.875 70.0854 28.0076 72.1014 30.0236C74.1174 32.0396 75.25 34.7739 75.25 37.625V72.5625C75.25 73.2753 74.9669 73.9588 74.4629 74.4629C73.9588 74.9669 73.2753 75.25 72.5625 75.25H13.4375C12.7247 75.25 12.0412 74.9669 11.5372 74.4629C11.0331 73.9588 10.75 73.2753 10.75 72.5625V48.375C10.75 45.5239 11.8826 42.7896 13.8986 40.7736C15.9146 38.7576 18.6489 37.625 21.5 37.625H29.5625ZM29.5625 69.875V43H21.5C20.0745 43 18.7073 43.5663 17.6993 44.5743C16.6913 45.5823 16.125 46.9495 16.125 48.375V69.875H29.5625ZM56.4375 69.875H69.875V37.625C69.875 36.1995 69.3087 34.8323 68.3007 33.8243C67.2927 32.8163 65.9255 32.25 64.5 32.25H56.4375V69.875Z" fill="#CFE9FC"/>
</svg>
